<svg xmlns="http://www.w3.org/2000/svg" viewBox="0 0 24 24" id="Interface-Essential-Loading-Circle-2--Streamline-Pixel" height="24" width="24">
  <desc>
    Interface Essential Loading Circle 2 Streamline Icon: https://streamlinehq.com
  </desc>
  <title>interface-essential-loading-circle-2</title>
  <g>
    <path d="m22.8525 12.57 -2.2874999999999996 0 0 -2.2874999999999996 2.2874999999999996 0 0 -1.1400000000000001 -3.4275 0 0 1.1400000000000001 -1.1400000000000001 0 0 3.435 1.1400000000000001 0 0 1.1400000000000001 3.4275 0 0 -1.1400000000000001 1.1475 0 0 -3.435 -1.1475 0 0 2.2874999999999996z" fill="#000000" stroke-width="0.75"></path>
    <path d="M20.565 17.145h1.1475v3.4275h-1.1475Z" fill="#000000" stroke-width="0.75"></path>
    <path d="m17.137500000000003 15.997499999999999 0 1.1475 -1.1400000000000001 0 0 3.4275 1.1400000000000001 0 0 1.1400000000000001 3.4275 0 0 -1.1400000000000001 -2.2800000000000002 0 0 -3.4275 2.2800000000000002 0 0 -1.1475 -3.4275 0z" fill="#000000" stroke-width="0.75"></path>
    <path d="m20.565 8.0025 0 -1.1475 1.1475 0 0 -3.4275 -1.1475 0 0 2.2874999999999996 -1.1400000000000001 0 0 -1.1475 -1.1400000000000001 0 0 -1.1400000000000001 2.2800000000000002 0 0 -1.1400000000000001 -3.4275 0 0 1.1400000000000001 -1.1400000000000001 0 0 3.4275 1.1400000000000001 0 0 1.1475 3.4275 0z" fill="#000000" stroke-width="0.75"></path>
    <path d="M13.71 19.424999999999997h1.1400000000000001v3.435h-1.1400000000000001Z" fill="#000000" stroke-width="0.75"></path>
    <path d="m14.850000000000001 1.1400000000000001 -1.1400000000000001 0 0 -1.1400000000000001 -3.4275 0 0 1.1400000000000001 -1.1400000000000001 0 0 3.4275 1.1400000000000001 0 0 1.1475 3.4275 0 0 -1.1475 1.1400000000000001 0 0 -3.4275z" fill="#000000" stroke-width="0.75"></path>
    <path d="M10.2825 22.86h3.4275V24h-3.4275Z" fill="#000000" stroke-width="0.75"></path>
    <path d="M10.2825 18.285h3.4275v1.1400000000000001h-3.4275Z" fill="#000000" stroke-width="0.75"></path>
    <path d="M9.1425 19.424999999999997h1.1400000000000001v3.435h-1.1400000000000001Z" fill="#000000" stroke-width="0.75"></path>
    <path d="m6.855 21.7125 0 -1.1400000000000001 1.1400000000000001 0 0 -3.4275 -1.1400000000000001 0 0 -1.1475 -3.4275 0 0 1.1475 2.2800000000000002 0 0 3.4275 -2.2800000000000002 0 0 1.1400000000000001 3.4275 0z" fill="#000000" stroke-width="0.75"></path>
    <path d="m7.995 3.4275 -1.1400000000000001 0 0 -1.1400000000000001 -3.4275 0 0 1.1400000000000001 2.2800000000000002 0 0 1.1400000000000001 -1.1400000000000001 0 0 1.1475 -1.1400000000000001 0 0 -2.2874999999999996 -1.1475 0 0 3.4275 1.1475 0 0 1.1475 3.4275 0 0 -1.1475 1.1400000000000001 0 0 -3.4275z" fill="#000000" stroke-width="0.75"></path>
    <path d="M2.2800000000000002 17.145h1.1475v3.4275H2.2800000000000002Z" fill="#000000" stroke-width="0.75"></path>
    <path d="m1.1400000000000001 14.857499999999998 3.4275 0 0 -1.1400000000000001 1.1400000000000001 0 0 -3.435 -1.1400000000000001 0 0 -1.1400000000000001 -3.4275 0 0 1.1400000000000001 2.2874999999999996 0 0 2.2874999999999996 -2.2874999999999996 0 0 -2.2874999999999996 -1.1400000000000001 0 0 3.435 1.1400000000000001 0 0 1.1400000000000001z" fill="#000000" stroke-width="0.75"></path>
  </g>
</svg>